<svg id="SvgjsSvg1001" width="288" height="288" xmlns="http://www.w3.org/2000/svg" version="1.1" xmlns:xlink="http://www.w3.org/1999/xlink" xmlns:svgjs="http://svgjs.com/svgjs"><circle id="SvgjsCircle1023" r="144" cx="144" cy="144" transform="matrix(0.83,0,0,0.83,24.480000000000004,24.480000000000004)" fill="#ffffff"></circle><defs id="SvgjsDefs1002"></defs><g id="SvgjsG1008" class="" transform="matrix(0.67,0,0,0.67,47.52000062942504,47.519999999999996)"><svg xmlns="http://www.w3.org/2000/svg" data-name="Layer 2" viewBox="0 0 32 32" width="288" height="288"><circle cx="21.584" cy="11" r="1" fill="#003840" class="color003840 svgShape"></circle><circle cx="9.695" cy="8.567" r="1" fill="#04bf9d" class="color04bf9d svgShape"></circle><circle cx="14.253" cy="10.567" r="1" fill="#04bf9d" class="color04bf9d svgShape"></circle><circle cx="18.351" cy="7" r="1" fill="#003840" class="color003840 svgShape"></circle><path fill="#003840" d="M6.518,21.539c-1.363,0-2.69-.508-3.708-1.431-1.15-1.043-1.81-2.532-1.81-4.085C1,7.729,7.729,1,16,1s15,6.729,15,15c0,1.557-.663,3.049-1.818,4.093-1.156,1.045-2.707,1.547-4.258,1.395l-4.815-.492,.203-1.99,4.815,.492c1.005,.102,1.967-.214,2.714-.889s1.159-1.602,1.159-2.608c0-7.168-5.832-13-13-13S3,8.832,3,16c0,1.027,.409,1.952,1.153,2.627,.742,.674,1.698,.993,2.703,.896l5.31-.518,.193,1.99-5.31,.518c-.178,.018-.355,.026-.532,.026Z" class="color003840 svgShape"></path><path fill="#003840" d="M18.657,31h-5.314c-.88,0-1.729-.368-2.33-1.011-.602-.644-.912-1.516-.854-2.395l.843-12.517,1.996,.135-.843,12.517c-.022,.332,.091,.649,.318,.894,.228,.243,.536,.377,.869,.377h5.314c.333,0,.642-.134,.869-.377,.228-.244,.341-.562,.318-.894l-.843-12.517,1.996-.135,.843,12.517c.059,.879-.252,1.751-.854,2.395-.601,.643-1.45,1.011-2.33,1.011Z" class="color003840 svgShape"></path><path fill="#04bf9d" d="M24.17,17.449c-8.158-3.15-14.267-1.037-16.346-.09-.456,.208-.991,.038-1.255-.388l-.003-.005c-.317-.512-.119-1.182,.426-1.436,2.418-1.126,9.029-3.392,17.928,.064,.522,.203,.766,.809,.546,1.324h0c-.214,.501-.788,.727-1.296,.531Z" class="color04bf9d svgShape"></path></svg></g></svg>